<?xml version="1.0" encoding="UTF-8"?>
<!DOCTYPE svg PUBLIC "-//W3C//DTD SVG 1.1//EN" "http://www.w3.org/Graphics/SVG/1.1/DTD/svg11.dtd">
<svg xmlns="http://www.w3.org/2000/svg" version="1.1" width="128px" height="128px" style="shape-rendering:geometricPrecision; text-rendering:geometricPrecision; image-rendering:optimizeQuality; fill-rule:evenodd; clip-rule:evenodd" xmlns:xlink="http://www.w3.org/1999/xlink">
<g><path style="opacity:1" fill="#5b6365" d="M 42.5,3.5 C 47.236,1.31982 50.5694,2.65315 52.5,7.5C 47.6601,13.0959 43.9934,12.4293 41.5,5.5C 42.376,4.74917 43.376,4.24917 44.5,4C 43.9056,3.53566 43.2389,3.36899 42.5,3.5 Z"/></g>
<g><path style="opacity:1" fill="#2d2e2d" d="M 40.5,3.5 C 41.1667,3.5 41.8333,3.5 42.5,3.5C 43.2389,3.36899 43.9056,3.53566 44.5,4C 43.376,4.24917 42.376,4.74917 41.5,5.5C 43.9934,12.4293 47.6601,13.0959 52.5,7.5C 54.1667,8.5 55.5,9.83333 56.5,11.5C 56.5,11.8333 56.5,12.1667 56.5,12.5C 53.6167,13.3105 50.7834,13.3105 48,12.5C 45.9636,12.9536 44.1303,13.7869 42.5,15C 43.4158,15.2784 44.0825,15.7784 44.5,16.5C 42.2151,17.5463 39.8817,17.5463 37.5,16.5C 36.609,15.8902 35.609,15.5569 34.5,15.5C 34.5,14.5 34.5,13.5 34.5,12.5C 34.56,11.9569 34.8933,11.6236 35.5,11.5C 41.3821,15.6223 42.7155,14.289 39.5,7.5C 40.2458,6.26381 40.5792,4.93047 40.5,3.5 Z"/></g>
<g><path style="opacity:1" fill="#636564" d="M 81.5,11.5 C 80.9779,9.78086 79.9779,8.44753 78.5,7.5C 77.8333,7.5 77.5,7.83333 77.5,8.5C 76.0779,8.74962 75.0779,9.58296 74.5,11C 76.1075,10.9813 77.7741,10.8146 79.5,10.5C 79.3187,13.3971 79.6521,16.2305 80.5,19C 80.0097,20.982 79.0097,22.6487 77.5,24C 79.0738,24.6987 80.4071,24.3654 81.5,23C 82.6289,19.8011 82.6289,16.3011 81.5,12.5C 82.1667,12.8333 82.8333,13.1667 83.5,13.5C 83.5,14.1667 83.5,14.8333 83.5,15.5C 84.3897,17.7819 84.5564,20.1152 84,22.5C 81.9373,24.7341 79.7706,26.7341 77.5,28.5C 76.209,28.2627 75.209,28.596 74.5,29.5C 74.5,29.8333 74.5,30.1667 74.5,30.5C 73.8333,30.5 73.5,30.1667 73.5,29.5C 74.0476,27.6064 75.0476,25.9397 76.5,24.5C 76.2907,23.914 75.9574,23.414 75.5,23C 80.1469,20.7577 80.8136,17.591 77.5,13.5C 75.5914,12.6518 73.5914,12.3184 71.5,12.5C 66.5,12.5 61.5,12.5 56.5,12.5C 56.5,12.1667 56.5,11.8333 56.5,11.5C 60.7496,10.7275 65.0829,10.2275 69.5,10C 72.5395,3.24794 77.3728,1.74794 84,5.5C 84.9724,8.2942 84.1391,10.2942 81.5,11.5 Z"/></g>
<g><path style="opacity:1" fill="#617175" d="M 40.5,3.5 C 40.5792,4.93047 40.2458,6.26381 39.5,7.5C 42.7155,14.289 41.3821,15.6223 35.5,11.5C 34.8933,11.6236 34.56,11.9569 34.5,12.5C 33.5655,11.4324 33.2322,10.099 33.5,8.5C 35.1667,8.5 36.8333,8.5 38.5,8.5C 38.1201,6.30202 38.7868,4.63535 40.5,3.5 Z"/></g>
<g><path style="opacity:1" fill="#b0b6b5" d="M 56.5,12.5 C 61.5,12.5 66.5,12.5 71.5,12.5C 71.634,14.2915 71.3007,15.9582 70.5,17.5C 69.0387,16.3143 67.7054,16.3143 66.5,17.5C 65.8333,17.5 65.5,17.8333 65.5,18.5C 64.8333,18.1667 64.1667,17.8333 63.5,17.5C 62.0813,16.5489 60.4147,16.2155 58.5,16.5C 58.2053,18.7354 58.5386,20.7354 59.5,22.5C 59.8417,23.3382 60.5084,23.6716 61.5,23.5C 59.7706,24.2362 58.7706,25.5695 58.5,27.5C 52.8084,28.5144 47.8084,30.8478 43.5,34.5C 38.4939,37.5061 34.4939,41.5061 31.5,46.5C 31.6716,45.5084 31.3382,44.8417 30.5,44.5C 29.6236,44.6309 28.9569,44.2975 28.5,43.5C 29.1272,42.5832 29.4606,41.5832 29.5,40.5C 30.8726,38.7935 32.5393,37.4602 34.5,36.5C 38.1091,34.02 41.7757,31.52 45.5,29C 46.1712,28.0138 46.1712,26.8471 45.5,25.5C 46.1174,25.6107 46.6174,25.944 47,26.5C 47.2835,24.1144 48.2835,23.4477 50,24.5C 49.9813,22.8925 49.8146,21.2259 49.5,19.5C 50.145,14.8201 48.4783,13.8201 44.5,16.5C 44.0825,15.7784 43.4158,15.2784 42.5,15C 44.1303,13.7869 45.9636,12.9536 48,12.5C 50.7834,13.3105 53.6167,13.3105 56.5,12.5 Z"/></g>
<g><path style="opacity:1" fill="#a1a6a3" d="M 71.5,12.5 C 73.5914,12.3184 75.5914,12.6518 77.5,13.5C 80.8136,17.591 80.1469,20.7577 75.5,23C 75.9574,23.414 76.2907,23.914 76.5,24.5C 75.0476,25.9397 74.0476,27.6064 73.5,29.5C 73.1667,29.5 72.8333,29.5 72.5,29.5C 71.7326,28.828 71.0659,27.9947 70.5,27C 66.6425,26.1901 62.9758,26.3567 59.5,27.5C 59.1667,27.5 58.8333,27.5 58.5,27.5C 58.7706,25.5695 59.7706,24.2362 61.5,23.5C 60.4236,20.252 61.0903,19.9187 63.5,22.5C 63.8333,22.1667 64.1667,21.8333 64.5,21.5C 63.7542,20.2638 63.4208,18.9305 63.5,17.5C 64.1667,17.8333 64.8333,18.1667 65.5,18.5C 66.1888,19.7072 66.3554,21.0406 66,22.5C 68.6766,24.0662 70.0099,23.3995 70,20.5C 68.4815,19.8366 67.3149,18.8366 66.5,17.5C 68.035,18.3543 69.3684,18.3543 70.5,17.5C 71.3007,15.9582 71.634,14.2915 71.5,12.5 Z"/></g>
<g><path style="opacity:1" fill="#c0c6c4" d="M 49.5,19.5 C 46.4124,19.1966 44.7458,20.5299 44.5,23.5C 45.3382,23.8417 45.6716,24.5084 45.5,25.5C 46.1712,26.8471 46.1712,28.0138 45.5,29C 41.7757,31.52 38.1091,34.02 34.5,36.5C 33.2634,33.5331 31.2634,32.5331 28.5,33.5C 28.9767,34.4776 29.6433,35.3109 30.5,36C 24.2522,35.4526 23.9189,36.9526 29.5,40.5C 29.4606,41.5832 29.1272,42.5832 28.5,43.5C 28.9569,44.2975 29.6236,44.6309 30.5,44.5C 29.3218,47.2165 28.3218,47.5499 27.5,45.5C 26.3635,41.2871 24.1969,40.6204 21,43.5C 20.3333,44.1667 20.3333,44.8333 21,45.5C 24.8745,46.8702 25.3745,48.8702 22.5,51.5C 21.3991,50.4017 20.0657,50.235 18.5,51C 19.2524,51.6708 19.5858,52.5041 19.5,53.5C 17.5,53.5 16.5,54.5 16.5,56.5C 14.544,58.1751 13.2107,57.8418 12.5,55.5C 12.5,54.5 12.5,53.5 12.5,52.5C 16.8066,38.0178 25.4733,26.8511 38.5,19C 36.3808,18.6582 36.0474,17.8249 37.5,16.5C 39.8817,17.5463 42.2151,17.5463 44.5,16.5C 48.4783,13.8201 50.145,14.8201 49.5,19.5 Z"/></g>
<g><path style="opacity:1" fill="#852f24" d="M 66.5,17.5 C 67.7054,16.3143 69.0387,16.3143 70.5,17.5C 69.3684,18.3543 68.035,18.3543 66.5,17.5 Z"/></g>
<g><path style="opacity:1" fill="#97a19d" d="M 83.5,15.5 C 92.6718,18.3397 100.505,23.3397 107,30.5C 109.029,33.0292 110.862,35.6959 112.5,38.5C 107.074,40.2611 102.408,43.5944 98.5,48.5C 98.1667,48.5 97.8333,48.5 97.5,48.5C 97.5654,48.0618 97.3988,47.7284 97,47.5C 96.7216,48.4158 96.2216,49.0825 95.5,49.5C 95.3433,48.1266 95.51,46.7932 96,45.5C 96.3333,45.8333 96.6667,46.1667 97,46.5C 100.902,43.1324 105.069,40.1324 109.5,37.5C 108.067,33.0558 105.067,31.0558 100.5,31.5C 101.263,30.7321 102.263,30.2321 103.5,30C 103,29.5 102.5,29 102,28.5C 96.3724,29.4971 90.7058,30.4971 85,31.5C 84.0979,31.2568 83.2646,30.9234 82.5,30.5C 80.597,30.2041 78.9303,29.5375 77.5,28.5C 79.7706,26.7341 81.9373,24.7341 84,22.5C 84.5564,20.1152 84.3897,17.7819 83.5,15.5 Z"/></g>
<g><path style="opacity:1" fill="#8c6c66" d="M 63.5,17.5 C 62.2591,19.9312 61.0924,19.9312 60,17.5C 59.5065,19.1341 59.3398,20.8008 59.5,22.5C 58.5386,20.7354 58.2053,18.7354 58.5,16.5C 60.4147,16.2155 62.0813,16.5489 63.5,17.5 Z"/></g>
<g><path style="opacity:1" fill="#954f40" d="M 49.5,19.5 C 49.8146,21.2259 49.9813,22.8925 50,24.5C 48.2835,23.4477 47.2835,24.1144 47,26.5C 46.6174,25.944 46.1174,25.6107 45.5,25.5C 45.6716,24.5084 45.3382,23.8417 44.5,23.5C 44.7458,20.5299 46.4124,19.1966 49.5,19.5 Z"/></g>
<g><path style="opacity:1" fill="#924c3e" d="M 53.5,17.5 C 57.2635,18.385 58.2635,20.5516 56.5,24C 51.3823,23.8242 50.3823,21.6576 53.5,17.5 Z"/></g>
<g><path style="opacity:1" fill="#b2b4b2" d="M 53.5,19.5 C 56.5688,19.963 57.0688,21.2963 55,23.5C 53.8118,22.4366 53.3118,21.1033 53.5,19.5 Z"/></g>
<g><path style="opacity:1" fill="#8d2a1a" d="M 63.5,17.5 C 63.4208,18.9305 63.7542,20.2638 64.5,21.5C 64.1667,21.8333 63.8333,22.1667 63.5,22.5C 61.0903,19.9187 60.4236,20.252 61.5,23.5C 60.5084,23.6716 59.8417,23.3382 59.5,22.5C 59.3398,20.8008 59.5065,19.1341 60,17.5C 61.0924,19.9312 62.2591,19.9312 63.5,17.5 Z"/></g>
<g><path style="opacity:1" fill="#93574a" d="M 66.5,17.5 C 67.3149,18.8366 68.4815,19.8366 70,20.5C 70.0099,23.3995 68.6766,24.0662 66,22.5C 66.3554,21.0406 66.1888,19.7072 65.5,18.5C 65.5,17.8333 65.8333,17.5 66.5,17.5 Z"/></g>
<g><path style="opacity:1" fill="#898a89" d="M 78.5,7.5 C 79.9779,8.44753 80.9779,9.78086 81.5,11.5C 81.5,11.8333 81.5,12.1667 81.5,12.5C 82.6289,16.3011 82.6289,19.8011 81.5,23C 80.4071,24.3654 79.0738,24.6987 77.5,24C 79.0097,22.6487 80.0097,20.982 80.5,19C 79.6521,16.2305 79.3187,13.3971 79.5,10.5C 77.7741,10.8146 76.1075,10.9813 74.5,11C 75.0779,9.58296 76.0779,8.74962 77.5,8.5C 78.1667,8.5 78.5,8.16667 78.5,7.5 Z"/></g>
<g><path style="opacity:1" fill="#8f4437" d="M 44.5,23.5 C 43.4886,25.3716 42.6552,27.3716 42,29.5C 38.0626,24.7483 38.8959,22.7483 44.5,23.5 Z"/></g>
<g><path style="opacity:1" fill="#80210b" d="M 74.5,29.5 C 75.209,28.596 76.209,28.2627 77.5,28.5C 78.9303,29.5375 80.597,30.2041 82.5,30.5C 81.791,31.404 80.791,31.7373 79.5,31.5C 78.0697,30.4625 76.403,29.7959 74.5,29.5 Z"/></g>
<g><path style="opacity:1" fill="#943b2b" d="M 34.5,27.5 C 39.2364,33.9692 38.2364,34.9692 31.5,30.5C 32.2739,29.2888 33.1072,29.2888 34,30.5C 34.4828,29.552 34.6495,28.552 34.5,27.5 Z"/></g>
<g><path style="opacity:1" fill="#a49e66" d="M 72.5,29.5 C 72.8333,29.5 73.1667,29.5 73.5,29.5C 73.5,30.1667 73.8333,30.5 74.5,30.5C 73.713,32.1042 72.3797,32.7709 70.5,32.5C 69.7222,31.8444 69.0556,31.0111 68.5,30C 68.8333,29.5 69.1667,29 69.5,28.5C 70.1667,29.1667 70.8333,29.8333 71.5,30.5C 72.1067,30.3764 72.44,30.0431 72.5,29.5 Z"/></g>
<g><path style="opacity:1" fill="#5f2825" d="M 58.5,27.5 C 58.8333,27.5 59.1667,27.5 59.5,27.5C 59.8333,27.5 60.1667,27.5 60.5,27.5C 54.8288,29.6182 49.1622,31.9516 43.5,34.5C 47.8084,30.8478 52.8084,28.5144 58.5,27.5 Z"/></g>
<g><path style="opacity:1" fill="#f1e34a" d="M 74.5,29.5 C 76.403,29.7959 78.0697,30.4625 79.5,31.5C 77.9731,31.427 76.9731,32.0937 76.5,33.5C 75.2089,34.5417 75.2089,35.7083 76.5,37C 74.8659,37.4935 73.1992,37.6602 71.5,37.5C 70.8466,36.1932 70.1799,34.8599 69.5,33.5C 69.6236,32.8933 69.9569,32.56 70.5,32.5C 72.3797,32.7709 73.713,32.1042 74.5,30.5C 74.5,30.1667 74.5,29.8333 74.5,29.5 Z"/></g>
<g><path style="opacity:1" fill="#cccfc5" d="M 100.5,31.5 C 105.067,31.0558 108.067,33.0558 109.5,37.5C 105.069,40.1324 100.902,43.1324 97,46.5C 96.6667,46.1667 96.3333,45.8333 96,45.5C 95.51,46.7932 95.3433,48.1266 95.5,49.5C 95.1034,50.525 94.4368,50.6917 93.5,50C 92.1741,47.8416 90.5075,46.0082 88.5,44.5C 88.5017,46.537 88.1684,48.537 87.5,50.5C 85.2729,49.5994 84.2729,47.9328 84.5,45.5C 82.8212,45.7148 81.8212,45.0481 81.5,43.5C 81.1778,41.5248 81.1778,39.8582 81.5,38.5C 83.3173,37.7808 83.9839,36.7808 83.5,35.5C 84.2575,36.8114 85.2575,37.3114 86.5,37C 86.8333,36 87.1667,35 87.5,34C 91.7543,32.7355 96.0876,31.9022 100.5,31.5 Z"/></g>
<g><path style="opacity:1" fill="#6c6d60" d="M 100.5,31.5 C 96.0876,31.9022 91.7543,32.7355 87.5,34C 87.1667,35 86.8333,36 86.5,37C 85.2575,37.3114 84.2575,36.8114 83.5,35.5C 83.9839,36.7808 83.3173,37.7808 81.5,38.5C 79.8883,36.6666 78.2216,34.9999 76.5,33.5C 76.9731,32.0937 77.9731,31.427 79.5,31.5C 80.791,31.7373 81.791,31.404 82.5,30.5C 83.2646,30.9234 84.0979,31.2568 85,31.5C 90.7058,30.4971 96.3724,29.4971 102,28.5C 102.5,29 103,29.5 103.5,30C 102.263,30.2321 101.263,30.7321 100.5,31.5 Z"/></g>
<g><path style="opacity:1" fill="#464c4c" d="M 59.5,27.5 C 62.9758,26.3567 66.6425,26.1901 70.5,27C 71.0659,27.9947 71.7326,28.828 72.5,29.5C 72.44,30.0431 72.1067,30.3764 71.5,30.5C 70.8333,29.8333 70.1667,29.1667 69.5,28.5C 69.1667,29 68.8333,29.5 68.5,30C 69.0556,31.0111 69.7222,31.8444 70.5,32.5C 69.9569,32.56 69.6236,32.8933 69.5,33.5C 70.1799,34.8599 70.8466,36.1932 71.5,37.5C 70.8333,37.5 70.5,37.8333 70.5,38.5C 70.1667,38.5 69.8333,38.5 69.5,38.5C 68.4324,37.5655 67.099,37.2322 65.5,37.5C 64.8826,37.3893 64.3826,37.056 64,36.5C 59.6004,39.7478 55.1004,42.7478 50.5,45.5C 49.6016,44.8423 48.6016,44.1757 47.5,43.5C 46.2889,42.2798 46.2889,41.1131 47.5,40C 46.6919,39.6924 46.0253,39.1924 45.5,38.5C 51.3419,35.0785 57.3419,31.9119 63.5,29C 62.7562,27.9614 61.7562,27.4614 60.5,27.5C 60.1667,27.5 59.8333,27.5 59.5,27.5 Z"/></g>
<g><path style="opacity:1" fill="#6c6f6d" d="M 83.5,13.5 C 104.528,20.8607 116.861,35.5274 120.5,57.5C 120.657,58.8734 120.49,60.2068 120,61.5C 119.21,54.4647 117.21,47.798 114,41.5C 113.536,42.0944 113.369,42.7611 113.5,43.5C 111.932,42.5269 110.265,42.3603 108.5,43C 105.168,44.9025 102.001,47.0691 99,49.5C 98.6012,49.2716 98.4346,48.9382 98.5,48.5C 102.408,43.5944 107.074,40.2611 112.5,38.5C 110.862,35.6959 109.029,33.0292 107,30.5C 100.505,23.3397 92.6718,18.3397 83.5,15.5C 83.5,14.8333 83.5,14.1667 83.5,13.5 Z"/></g>
<g><path style="opacity:1" fill="#9d4635" d="M 34.5,36.5 C 32.5393,37.4602 30.8726,38.7935 29.5,40.5C 23.9189,36.9526 24.2522,35.4526 30.5,36C 29.6433,35.3109 28.9767,34.4776 28.5,33.5C 31.2634,32.5331 33.2634,33.5331 34.5,36.5 Z"/></g>
<g><path style="opacity:1" fill="#1d1d1d" d="M 60.5,27.5 C 61.7562,27.4614 62.7562,27.9614 63.5,29C 57.3419,31.9119 51.3419,35.0785 45.5,38.5C 46.0253,39.1924 46.6919,39.6924 47.5,40C 46.2889,41.1131 46.2889,42.2798 47.5,43.5C 48.6016,44.1757 49.6016,44.8423 50.5,45.5C 50.0269,46.9063 49.0269,47.573 47.5,47.5C 46.2105,43.9562 44.5439,40.6229 42.5,37.5C 42.5569,36.391 42.8902,35.391 43.5,34.5C 49.1622,31.9516 54.8288,29.6182 60.5,27.5 Z"/></g>
<g><path style="opacity:1" fill="#51270b" d="M 65.5,37.5 C 67.099,37.2322 68.4324,37.5655 69.5,38.5C 69.5299,39.4972 69.0299,40.1639 68,40.5C 66.8615,40.0109 65.6948,39.6775 64.5,39.5C 64.8333,38.8333 65.1667,38.1667 65.5,37.5 Z"/></g>
<g><path style="opacity:1" fill="#969159" d="M 76.5,33.5 C 78.2216,34.9999 79.8883,36.6666 81.5,38.5C 81.1778,39.8582 81.1778,41.5248 81.5,43.5C 80.1658,41.841 78.4992,40.5076 76.5,39.5C 75.7348,40.6119 74.7348,41.2786 73.5,41.5C 72.8333,41.1667 72.1667,40.8333 71.5,40.5C 71.6716,39.5084 71.3382,38.8417 70.5,38.5C 70.5,37.8333 70.8333,37.5 71.5,37.5C 73.1992,37.6602 74.8659,37.4935 76.5,37C 75.2089,35.7083 75.2089,34.5417 76.5,33.5 Z"/></g>
<g><path style="opacity:1" fill="#7c807f" d="M 34.5,15.5 C 35.609,15.5569 36.609,15.8902 37.5,16.5C 36.0474,17.8249 36.3808,18.6582 38.5,19C 25.4733,26.8511 16.8066,38.0178 12.5,52.5C 11.8333,52.5 11.5,52.1667 11.5,51.5C 15.2642,38.0631 22.9309,27.3964 34.5,19.5C 35.6256,18.1916 35.6256,16.8583 34.5,15.5 Z"/></g>
<g><path style="opacity:1" fill="#71100b" d="M 43.5,34.5 C 42.8902,35.391 42.5569,36.391 42.5,37.5C 38.9012,39.2629 36.0678,41.9295 34,45.5C 29.7071,52.2115 27.5404,59.5448 27.5,67.5C 27.5,67.8333 27.5,68.1667 27.5,68.5C 26.2854,64.9674 26.2854,61.3008 27.5,57.5C 28.4375,53.6872 29.7709,50.0205 31.5,46.5C 34.4939,41.5061 38.4939,37.5061 43.5,34.5 Z"/></g>
<g><path style="opacity:1" fill="#c1c4ba" d="M 65.5,37.5 C 65.1667,38.1667 64.8333,38.8333 64.5,39.5C 63.8333,39.5 63.5,39.8333 63.5,40.5C 60.795,42.5116 58.1283,44.5116 55.5,46.5C 52.5265,48.1468 49.8599,50.1468 47.5,52.5C 47.1667,52.5 46.8333,52.5 46.5,52.5C 41.4614,55.229 39.4614,59.5623 40.5,65.5C 39.5184,62.0381 39.185,58.3714 39.5,54.5C 41.1667,53.5 42.5,52.1667 43.5,50.5C 44.2623,48.7376 45.5956,47.7376 47.5,47.5C 49.0269,47.573 50.0269,46.9063 50.5,45.5C 55.1004,42.7478 59.6004,39.7478 64,36.5C 64.3826,37.056 64.8826,37.3893 65.5,37.5 Z"/></g>
<g><path style="opacity:1" fill="#b4ab5a" d="M 81.5,43.5 C 81.8212,45.0481 82.8212,45.7148 84.5,45.5C 84.2729,47.9328 85.2729,49.5994 87.5,50.5C 87.9195,52.0936 88.5862,53.5936 89.5,55C 89.1639,56.0299 88.4972,56.5299 87.5,56.5C 84.5779,52.3994 81.4113,48.3994 78,44.5C 77.0228,43.2264 76.1894,43.2264 75.5,44.5C 74.5987,43.7095 73.9321,42.7095 73.5,41.5C 74.7348,41.2786 75.7348,40.6119 76.5,39.5C 78.4992,40.5076 80.1658,41.841 81.5,43.5 Z"/></g>
<g><path style="opacity:1" fill="#8e3b2b" d="M 27.5,45.5 C 26.5195,47.396 25.5195,49.396 24.5,51.5C 21.421,52.5738 20.7544,52.5738 22.5,51.5C 25.3745,48.8702 24.8745,46.8702 21,45.5C 20.3333,44.8333 20.3333,44.1667 21,43.5C 24.1969,40.6204 26.3635,41.2871 27.5,45.5 Z"/></g>
<g><path style="opacity:1" fill="#bcc0c0" d="M 22.5,43.5 C 23.5,43.5 24.5,43.5 25.5,43.5C 25.1927,46.962 24.1927,46.962 22.5,43.5 Z"/></g>
<g><path style="opacity:1" fill="#39190c" d="M 63.5,40.5 C 63.2322,42.099 63.5655,43.4324 64.5,44.5C 65.4293,45.3149 66.4293,46.1482 67.5,47C 66.7476,47.6708 66.4142,48.5041 66.5,49.5C 65.2153,47.5484 63.5486,45.8818 61.5,44.5C 61.2635,45.2472 60.9302,46.0805 60.5,47C 58.8034,47.3845 57.1368,47.2178 55.5,46.5C 58.1283,44.5116 60.795,42.5116 63.5,40.5 Z"/></g>
<g><path style="opacity:1" fill="#9f4c15" d="M 69.5,38.5 C 69.8333,38.5 70.1667,38.5 70.5,38.5C 71.3382,38.8417 71.6716,39.5084 71.5,40.5C 72.059,43.8434 73.3923,46.8434 75.5,49.5C 71.3083,51.2726 68.8083,49.9392 68,45.5C 66.9887,44.6634 65.8221,44.33 64.5,44.5C 63.5655,43.4324 63.2322,42.099 63.5,40.5C 63.5,39.8333 63.8333,39.5 64.5,39.5C 65.6948,39.6775 66.8615,40.0109 68,40.5C 69.0299,40.1639 69.5299,39.4972 69.5,38.5 Z"/></g>
<g><path style="opacity:1" fill="#75766b" d="M 95.5,49.5 C 96.2216,49.0825 96.7216,48.4158 97,47.5C 97.3988,47.7284 97.5654,48.0618 97.5,48.5C 99.0875,50.6194 98.7542,52.286 96.5,53.5C 91.9448,49.3822 89.9448,50.7155 90.5,57.5C 89.8333,57.8333 89.1667,58.1667 88.5,58.5C 88.1667,57.8333 87.8333,57.1667 87.5,56.5C 88.4972,56.5299 89.1639,56.0299 89.5,55C 88.5862,53.5936 87.9195,52.0936 87.5,50.5C 88.1684,48.537 88.5017,46.537 88.5,44.5C 90.5075,46.0082 92.1741,47.8416 93.5,50C 94.4368,50.6917 95.1034,50.525 95.5,49.5 Z"/></g>
<g><path style="opacity:1" fill="#ab4711" d="M 66.5,49.5 C 67.2906,52.115 67.9573,54.7816 68.5,57.5C 67.0687,58.7804 66.4021,60.4471 66.5,62.5C 64.0582,60.4731 62.5582,57.8065 62,54.5C 60.1643,52.2916 57.831,50.9583 55,50.5C 54.805,49.1807 54.9717,47.8474 55.5,46.5C 57.1368,47.2178 58.8034,47.3845 60.5,47C 60.9302,46.0805 61.2635,45.2472 61.5,44.5C 63.5486,45.8818 65.2153,47.5484 66.5,49.5 Z"/></g>
<g><path style="opacity:1" fill="#5d5d5b" d="M 43.5,50.5 C 42.5,52.1667 41.1667,53.5 39.5,54.5C 39.8333,52.1667 41.1667,50.8333 43.5,50.5 Z"/></g>
<g><path style="opacity:1" fill="#863a2c" d="M 19.5,53.5 C 24.8165,55.4724 24.8165,57.4724 19.5,59.5C 17.8247,59.1316 16.8247,58.1316 16.5,56.5C 16.5,54.5 17.5,53.5 19.5,53.5 Z"/></g>
<g><path style="opacity:1" fill="#686653" d="M 46.5,52.5 C 46.5,54.5 46.5,56.5 46.5,58.5C 42.8493,58.1617 41.1826,59.8284 41.5,63.5C 41.5,63.8333 41.5,64.1667 41.5,64.5C 41.5,64.8333 41.5,65.1667 41.5,65.5C 41.1667,65.5 40.8333,65.5 40.5,65.5C 39.4614,59.5623 41.4614,55.229 46.5,52.5 Z"/></g>
<g><path style="opacity:1" fill="#7a4a14" d="M 71.5,40.5 C 72.1667,40.8333 72.8333,41.1667 73.5,41.5C 73.9321,42.7095 74.5987,43.7095 75.5,44.5C 77.7204,48.9853 76.5537,51.9853 72,53.5C 70.7387,53.2409 69.7387,52.5742 69,51.5C 69.1349,53.4247 69.3016,55.4247 69.5,57.5C 69.1667,57.5 68.8333,57.5 68.5,57.5C 67.9573,54.7816 67.2906,52.115 66.5,49.5C 66.4142,48.5041 66.7476,47.6708 67.5,47C 66.4293,46.1482 65.4293,45.3149 64.5,44.5C 65.8221,44.33 66.9887,44.6634 68,45.5C 68.8083,49.9392 71.3083,51.2726 75.5,49.5C 73.3923,46.8434 72.059,43.8434 71.5,40.5 Z"/></g>
<g><path style="opacity:1" fill="#474943" d="M 113.5,43.5 C 114.309,52.573 111.642,60.573 105.5,67.5C 105.737,66.209 105.404,65.209 104.5,64.5C 107.041,59.858 109.208,55.1914 111,50.5C 106.823,55.7889 103.323,60.7889 100.5,65.5C 99.1667,63.8333 97.8333,62.1667 96.5,60.5C 95.8933,60.6236 95.56,60.9569 95.5,61.5C 95.5654,61.9382 95.3988,62.2716 95,62.5C 93.6343,60.6383 92.1343,58.9717 90.5,57.5C 89.9448,50.7155 91.9448,49.3822 96.5,53.5C 98.7542,52.286 99.0875,50.6194 97.5,48.5C 97.8333,48.5 98.1667,48.5 98.5,48.5C 98.4346,48.9382 98.6012,49.2716 99,49.5C 102.001,47.0691 105.168,44.9025 108.5,43C 110.265,42.3603 111.932,42.5269 113.5,43.5 Z"/></g>
<g><path style="opacity:1" fill="#b4b7b6" d="M 18.5,54.5 C 22.31,55.7542 22.31,56.7542 18.5,57.5C 18.5,56.5 18.5,55.5 18.5,54.5 Z"/></g>
<g><path style="opacity:1" fill="#f8e94f" d="M 38.5,56.5 C 39.0545,60.0122 38.3878,63.0122 36.5,65.5C 34.7028,64.2702 32.7028,63.6036 30.5,63.5C 32.3122,61.5395 33.3122,59.2061 33.5,56.5C 35.36,55.9285 37.0267,55.9285 38.5,56.5 Z"/></g>
<g><path style="opacity:1" fill="#383a39" d="M 11.5,51.5 C 11.5,52.1667 11.8333,52.5 12.5,52.5C 12.5,53.5 12.5,54.5 12.5,55.5C 11.5386,57.2646 11.2053,59.2646 11.5,61.5C 10.0222,61.762 8.68884,61.4287 7.5,60.5C 8.01023,57.77 9.34357,55.6034 11.5,54C 11,53.5 10.5,53 10,52.5C 7.74265,55.4381 6.57598,58.7715 6.5,62.5C 5.30452,58.8441 5.97118,55.3441 8.5,52C 9.44802,51.5172 10.448,51.3505 11.5,51.5 Z"/></g>
<g><path style="opacity:1" fill="#9f4310" d="M 57.5,55.5 C 59.3125,58.4957 59.6459,61.4957 58.5,64.5C 57.325,64.719 56.325,64.3857 55.5,63.5C 55.2239,60.0578 53.3906,58.0578 50,57.5C 48.9701,57.8361 48.4701,58.5028 48.5,59.5C 48.3573,61.2624 48.6906,62.9291 49.5,64.5C 47.9272,66.8362 46.5939,66.8362 45.5,64.5C 44.2638,63.7542 42.9305,63.4208 41.5,63.5C 41.1826,59.8284 42.8493,58.1617 46.5,58.5C 46.5,56.5 46.5,54.5 46.5,52.5C 46.8333,52.5 47.1667,52.5 47.5,52.5C 49.8722,53.9137 52.0388,53.5803 54,51.5C 55.4048,52.7305 56.5714,54.0639 57.5,55.5 Z"/></g>
<g><path style="opacity:1" fill="#969894" d="M 27.5,57.5 C 26.2854,61.3008 26.2854,64.9674 27.5,68.5C 27.9382,68.4346 28.2716,68.6012 28.5,69C 27.3333,69.5 26.5,70.3333 26,71.5C 25.586,71.0426 25.086,70.7093 24.5,70.5C 23.5713,71.6888 23.238,73.0222 23.5,74.5C 24.8221,74.67 25.9887,74.3366 27,73.5C 26.9227,74.7376 27.0894,75.7376 27.5,76.5C 28.5282,74.4197 29.8615,74.0864 31.5,75.5C 32.525,75.8966 32.6917,76.5632 32,77.5C 31.6667,77.1667 31.3333,76.8333 31,76.5C 26.8042,80.9014 23.6376,85.9014 21.5,91.5C 21.6236,92.1067 21.9569,92.44 22.5,92.5C 22.5,93.1667 22.5,93.8333 22.5,94.5C 17.2313,89.6186 17.2313,84.6186 22.5,79.5C 22.1373,78.8165 21.8039,78.1499 21.5,77.5C 22.552,77.6495 23.552,77.4828 24.5,77C 20.8396,73.9753 17.1729,74.142 13.5,77.5C 12.1508,77.1543 10.8175,76.821 9.5,76.5C 8.54227,75.0384 7.37561,73.7051 6,72.5C 6.5659,67.3748 7.23257,67.3748 8,72.5C 8.7083,73.3805 9.54163,74.0472 10.5,74.5C 11.2613,75.3909 12.2613,76.0576 13.5,76.5C 14.5904,75.273 15.9238,74.4396 17.5,74C 15.1224,73.0255 15.4557,72.3589 18.5,72C 17.2625,71.7679 16.2625,71.2679 15.5,70.5C 17.2299,68.8786 19.2299,67.5452 21.5,66.5C 20.1938,65.5326 19.5271,64.1993 19.5,62.5C 21.9076,61.3732 20.9076,61.3732 16.5,62.5C 15.9569,62.44 15.6236,62.1067 15.5,61.5C 18.1071,60.6816 20.7737,60.1816 23.5,60C 24.4709,58.5187 25.8042,57.6854 27.5,57.5 Z"/></g>
<g><path style="opacity:1" fill="#5b2910" d="M 55.5,46.5 C 54.9717,47.8474 54.805,49.1807 55,50.5C 57.831,50.9583 60.1643,52.2916 62,54.5C 62.5582,57.8065 64.0582,60.4731 66.5,62.5C 66.5,62.8333 66.5,63.1667 66.5,63.5C 65.5,63.5 64.5,63.5 63.5,63.5C 62.1329,60.2575 60.2996,57.2575 58,54.5C 57.6012,54.7284 57.4346,55.0618 57.5,55.5C 56.5714,54.0639 55.4048,52.7305 54,51.5C 52.0388,53.5803 49.8722,53.9137 47.5,52.5C 49.8599,50.1468 52.5265,48.1468 55.5,46.5 Z"/></g>
<g><path style="opacity:1" fill="#bfa034" d="M 68.5,57.5 C 68.8333,57.5 69.1667,57.5 69.5,57.5C 70.8584,59.7428 70.1917,61.4095 67.5,62.5C 67.1667,62.5 66.8333,62.5 66.5,62.5C 66.4021,60.4471 67.0687,58.7804 68.5,57.5 Z"/></g>
<g><path style="opacity:1" fill="#acb1af" d="M 30.5,44.5 C 31.3382,44.8417 31.6716,45.5084 31.5,46.5C 29.7709,50.0205 28.4375,53.6872 27.5,57.5C 25.8042,57.6854 24.4709,58.5187 23.5,60C 20.7737,60.1816 18.1071,60.6816 15.5,61.5C 15.6236,62.1067 15.9569,62.44 16.5,62.5C 17.3764,62.3691 18.0431,62.7025 18.5,63.5C 17.5,64.1667 16.5,64.8333 15.5,65.5C 17.396,66.4656 19.396,66.7989 21.5,66.5C 19.2299,67.5452 17.2299,68.8786 15.5,70.5C 11.8263,68.7795 10.4929,65.7795 11.5,61.5C 11.2053,59.2646 11.5386,57.2646 12.5,55.5C 13.2107,57.8418 14.544,58.1751 16.5,56.5C 16.8247,58.1316 17.8247,59.1316 19.5,59.5C 24.8165,57.4724 24.8165,55.4724 19.5,53.5C 19.5858,52.5041 19.2524,51.6708 18.5,51C 20.0657,50.235 21.3991,50.4017 22.5,51.5C 20.7544,52.5738 21.421,52.5738 24.5,51.5C 25.5195,49.396 26.5195,47.396 27.5,45.5C 28.3218,47.5499 29.3218,47.2165 30.5,44.5 Z"/></g>
<g><path style="opacity:1" fill="#8f3221" d="M 16.5,62.5 C 20.9076,61.3732 21.9076,61.3732 19.5,62.5C 19.5271,64.1993 20.1938,65.5326 21.5,66.5C 19.396,66.7989 17.396,66.4656 15.5,65.5C 16.5,64.8333 17.5,64.1667 18.5,63.5C 18.0431,62.7025 17.3764,62.3691 16.5,62.5 Z"/></g>
<g><path style="opacity:1" fill="#66300f" d="M 58.5,64.5 C 57.0536,65.6129 55.3869,65.7796 53.5,65C 52.9678,62.5368 51.6345,60.7035 49.5,59.5C 49.1667,59.5 48.8333,59.5 48.5,59.5C 48.4701,58.5028 48.9701,57.8361 50,57.5C 53.3906,58.0578 55.2239,60.0578 55.5,63.5C 56.325,64.3857 57.325,64.719 58.5,64.5 Z"/></g>
<g><path style="opacity:1" fill="#f0d838" d="M 87.5,56.5 C 87.8333,57.1667 88.1667,57.8333 88.5,58.5C 88.8333,59.1667 89.1667,59.8333 89.5,60.5C 87.6329,61.7598 86.2995,63.4265 85.5,65.5C 83.0672,65.2729 81.4006,66.2729 80.5,68.5C 80.5,68.8333 80.5,69.1667 80.5,69.5C 79.596,70.209 79.2627,71.209 79.5,72.5C 75.7807,71.6105 72.9474,71.6105 71,72.5C 69.3149,74.0175 67.8149,75.6841 66.5,77.5C 63.7435,77.7969 61.0769,78.2969 58.5,79C 57.8333,80.3333 56.8333,81.3333 55.5,82C 56.5532,83.7493 56.2199,85.2493 54.5,86.5C 52.4131,85.4154 51.0798,83.7488 50.5,81.5C 50.8807,80.0689 51.8807,79.2355 53.5,79C 52.376,78.7508 51.376,78.2508 50.5,77.5C 51.7602,74.9449 53.0936,72.4449 54.5,70C 57.7253,70.3474 60.892,71.1808 64,72.5C 66.7623,71.0194 69.429,69.3527 72,67.5C 72.7175,68.4506 73.5509,68.6172 74.5,68C 72.4062,66.6485 70.0728,66.1485 67.5,66.5C 67.5,65.1667 67.5,63.8333 67.5,62.5C 70.1917,61.4095 70.8584,59.7428 69.5,57.5C 69.3016,55.4247 69.1349,53.4247 69,51.5C 69.7387,52.5742 70.7387,53.2409 72,53.5C 76.5537,51.9853 77.7204,48.9853 75.5,44.5C 76.1894,43.2264 77.0228,43.2264 78,44.5C 81.4113,48.3994 84.5779,52.3994 87.5,56.5 Z"/></g>
<g><path style="opacity:1" fill="#898248" d="M 90.5,57.5 C 92.1343,58.9717 93.6343,60.6383 95,62.5C 95.3988,62.2716 95.5654,61.9382 95.5,61.5C 96.1047,63.9741 97.1047,66.3074 98.5,68.5C 97.6618,68.8417 97.3284,69.5084 97.5,70.5C 96.603,71.5981 95.7697,71.5981 95,70.5C 94.7679,71.7375 94.2679,72.7375 93.5,73.5C 93.1667,73.5 92.8333,73.5 92.5,73.5C 92.5,73.1667 92.5,72.8333 92.5,72.5C 93.2663,70.3157 93.9329,67.9823 94.5,65.5C 93.9646,63.7295 93.1313,63.3961 92,64.5C 91.3918,62.9336 90.5585,61.6002 89.5,60.5C 89.1667,59.8333 88.8333,59.1667 88.5,58.5C 89.1667,58.1667 89.8333,57.8333 90.5,57.5 Z"/></g>
<g><path style="opacity:1" fill="#6b6d60" d="M 104.5,64.5 C 103.833,66.1667 103.167,67.8333 102.5,69.5C 101.041,69.5674 99.7079,69.2341 98.5,68.5C 97.1047,66.3074 96.1047,63.9741 95.5,61.5C 95.56,60.9569 95.8933,60.6236 96.5,60.5C 97.8333,62.1667 99.1667,63.8333 100.5,65.5C 103.323,60.7889 106.823,55.7889 111,50.5C 109.208,55.1914 107.041,59.858 104.5,64.5 Z"/></g>
<g><path style="opacity:1" fill="#000000" d="M 3.5,65.5 C 4.52502,65.8966 4.69169,66.5632 4,67.5C 3.53566,66.9056 3.36899,66.2389 3.5,65.5 Z"/></g>
<g><path style="opacity:1" fill="#775017" d="M 48.5,59.5 C 48.8333,59.5 49.1667,59.5 49.5,59.5C 50.0916,62.1272 50.4249,64.7938 50.5,67.5C 46.9979,67.6663 43.9979,66.6663 41.5,64.5C 41.5,64.1667 41.5,63.8333 41.5,63.5C 42.9305,63.4208 44.2638,63.7542 45.5,64.5C 46.5939,66.8362 47.9272,66.8362 49.5,64.5C 48.6906,62.9291 48.3573,61.2624 48.5,59.5 Z"/></g>
<g><path style="opacity:1" fill="#dfc841" d="M 89.5,60.5 C 90.5585,61.6002 91.3918,62.9336 92,64.5C 93.1313,63.3961 93.9646,63.7295 94.5,65.5C 93.9329,67.9823 93.2663,70.3157 92.5,72.5C 92.5,72.1667 92.5,71.8333 92.5,71.5C 90.8065,68.8103 88.4732,66.8103 85.5,65.5C 86.2995,63.4265 87.6329,61.7598 89.5,60.5 Z"/></g>
<g><path style="opacity:1" fill="#d1c842" d="M 30.5,64.5 C 30.573,66.0269 29.9063,67.0269 28.5,67.5C 28.427,65.9731 29.0937,64.9731 30.5,64.5 Z"/></g>
<g><path style="opacity:1" fill="#8d9795" d="M 120.5,57.5 C 121.833,63.5 121.833,69.5 120.5,75.5C 120.657,74.1266 120.49,72.7932 120,71.5C 119.472,75.9434 118.472,80.2768 117,84.5C 116.024,82.1128 114.191,80.9461 111.5,81C 108.766,78.14 106.766,74.9734 105.5,71.5C 105.5,70.1667 105.5,68.8333 105.5,67.5C 111.642,60.573 114.309,52.573 113.5,43.5C 113.369,42.7611 113.536,42.0944 114,41.5C 117.21,47.798 119.21,54.4647 120,61.5C 120.49,60.2068 120.657,58.8734 120.5,57.5 Z"/></g>
<g><path style="opacity:1" fill="#808382" d="M 11.5,61.5 C 10.4929,65.7795 11.8263,68.7795 15.5,70.5C 16.2625,71.2679 17.2625,71.7679 18.5,72C 15.4557,72.3589 15.1224,73.0255 17.5,74C 15.9238,74.4396 14.5904,75.273 13.5,76.5C 12.2613,76.0576 11.2613,75.3909 10.5,74.5C 11.5983,73.3991 11.765,72.0657 11,70.5C 10.586,70.9574 10.086,71.2907 9.5,71.5C 9.09352,68.0609 8.09352,65.0609 6.5,62.5C 6.57598,58.7715 7.74265,55.4381 10,52.5C 10.5,53 11,53.5 11.5,54C 9.34357,55.6034 8.01023,57.77 7.5,60.5C 8.68884,61.4287 10.0222,61.762 11.5,61.5 Z"/></g>
<g><path style="opacity:1" fill="#f1de4b" d="M 63.5,63.5 C 62.6586,65.3792 62.3253,67.3792 62.5,69.5C 66.0681,69.2407 67.4015,67.2407 66.5,63.5C 66.5,63.1667 66.5,62.8333 66.5,62.5C 66.8333,62.5 67.1667,62.5 67.5,62.5C 67.5,63.8333 67.5,65.1667 67.5,66.5C 70.0728,66.1485 72.4062,66.6485 74.5,68C 73.5509,68.6172 72.7175,68.4506 72,67.5C 69.429,69.3527 66.7623,71.0194 64,72.5C 60.892,71.1808 57.7253,70.3474 54.5,70C 53.0936,72.4449 51.7602,74.9449 50.5,77.5C 51.376,78.2508 52.376,78.7508 53.5,79C 51.8807,79.2355 50.8807,80.0689 50.5,81.5C 45.812,77.1384 42.812,71.805 41.5,65.5C 41.5,65.1667 41.5,64.8333 41.5,64.5C 43.9979,66.6663 46.9979,67.6663 50.5,67.5C 50.4249,64.7938 50.0916,62.1272 49.5,59.5C 51.6345,60.7035 52.9678,62.5368 53.5,65C 55.3869,65.7796 57.0536,65.6129 58.5,64.5C 59.6459,61.4957 59.3125,58.4957 57.5,55.5C 57.4346,55.0618 57.6012,54.7284 58,54.5C 60.2996,57.2575 62.1329,60.2575 63.5,63.5 Z"/></g>
<g><path style="opacity:1" fill="#faf4af" d="M 63.5,63.5 C 64.5,63.5 65.5,63.5 66.5,63.5C 67.4015,67.2407 66.0681,69.2407 62.5,69.5C 62.3253,67.3792 62.6586,65.3792 63.5,63.5 Z"/></g>
<g><path style="opacity:1" fill="#c5892c" d="M 85.5,65.5 C 88.4732,66.8103 90.8065,68.8103 92.5,71.5C 91.5837,71.9817 90.5837,72.315 89.5,72.5C 86.8597,70.4189 83.8597,69.0856 80.5,68.5C 81.4006,66.2729 83.0672,65.2729 85.5,65.5 Z"/></g>
<g><path style="opacity:1" fill="#222222" d="M 6.5,62.5 C 8.09352,65.0609 9.09352,68.0609 9.5,71.5C 10.086,71.2907 10.586,70.9574 11,70.5C 11.765,72.0657 11.5983,73.3991 10.5,74.5C 9.54163,74.0472 8.7083,73.3805 8,72.5C 7.23257,67.3748 6.5659,67.3748 6,72.5C 7.37561,73.7051 8.54227,75.0384 9.5,76.5C 6.84773,75.8478 5.18107,74.1811 4.5,71.5C 5.10338,69.1279 6.10338,66.9613 7.5,65C 7.25675,64.0979 6.92342,63.2646 6.5,62.5 Z"/></g>
<g><path style="opacity:1" fill="#eee24b" d="M 98.5,68.5 C 99.7079,69.2341 101.041,69.5674 102.5,69.5C 102.703,71.3904 102.037,72.8904 100.5,74C 101.044,74.7172 101.711,75.2172 102.5,75.5C 102.5,75.8333 102.5,76.1667 102.5,76.5C 101.508,76.3284 100.842,76.6618 100.5,77.5C 99.5,77.8333 98.8333,78.5 98.5,79.5C 96.9605,81.8383 96.2938,84.5049 96.5,87.5C 95.2719,86.6935 94.2719,85.6935 93.5,84.5C 96.9264,80.5315 98.2597,75.8648 97.5,70.5C 97.3284,69.5084 97.6618,68.8417 98.5,68.5 Z"/></g>
<g><path style="opacity:1" fill="#731e0d" d="M 104.5,64.5 C 105.404,65.209 105.737,66.209 105.5,67.5C 105.5,68.8333 105.5,70.1667 105.5,71.5C 105.028,73.5313 104.028,75.1979 102.5,76.5C 102.5,76.1667 102.5,75.8333 102.5,75.5C 103.742,73.3888 103.742,71.3888 102.5,69.5C 103.167,67.8333 103.833,66.1667 104.5,64.5 Z"/></g>
<g><path style="opacity:1" fill="#af601c" d="M 80.5,68.5 C 83.8597,69.0856 86.8597,70.4189 89.5,72.5C 90.5837,72.315 91.5837,71.9817 92.5,71.5C 92.5,71.8333 92.5,72.1667 92.5,72.5C 92.5,72.8333 92.5,73.1667 92.5,73.5C 92.1583,74.3382 91.4916,74.6716 90.5,74.5C 87.1563,73.4925 83.8229,72.4925 80.5,71.5C 80.5,70.8333 80.5,70.1667 80.5,69.5C 80.5,69.1667 80.5,68.8333 80.5,68.5 Z"/></g>
<g><path style="opacity:1" fill="#808175" d="M 30.5,63.5 C 32.7028,63.6036 34.7028,64.2702 36.5,65.5C 37.0073,68.8442 38.8407,71.1776 42,72.5C 42.9386,75.5995 44.1052,78.5995 45.5,81.5C 44.8166,83.1765 43.4832,83.8432 41.5,83.5C 39.9263,82.0158 38.593,80.3492 37.5,78.5C 38.0076,76.7673 38.841,76.434 40,77.5C 40.8239,74.2826 39.6572,72.7826 36.5,73C 37.6537,73.9138 37.487,74.7471 36,75.5C 33.9217,70.4973 32.4217,70.4973 31.5,75.5C 29.8615,74.0864 28.5282,74.4197 27.5,76.5C 27.0894,75.7376 26.9227,74.7376 27,73.5C 25.9887,74.3366 24.8221,74.67 23.5,74.5C 23.238,73.0222 23.5713,71.6888 24.5,70.5C 25.086,70.7093 25.586,71.0426 26,71.5C 26.5,70.3333 27.3333,69.5 28.5,69C 28.2716,68.6012 27.9382,68.4346 27.5,68.5C 27.5,68.1667 27.5,67.8333 27.5,67.5C 27.8333,67.5 28.1667,67.5 28.5,67.5C 29.9063,67.0269 30.573,66.0269 30.5,64.5C 30.5,64.1667 30.5,63.8333 30.5,63.5 Z"/></g>
<g><path style="opacity:1" fill="#410c06" d="M 87.5,79.5 C 87.0269,80.9063 86.0269,81.573 84.5,81.5C 80.8933,80.1809 80.56,78.1809 83.5,75.5C 85.188,76.5213 86.5213,77.8546 87.5,79.5 Z"/></g>
<g><path style="opacity:1" fill="#50371d" d="M 92.5,73.5 C 92.8333,73.5 93.1667,73.5 93.5,73.5C 93.313,75.5643 92.813,77.5643 92,79.5C 88.2221,81.9701 84.3888,84.3034 80.5,86.5C 81.2995,84.4265 82.6329,82.7598 84.5,81.5C 86.0269,81.573 87.0269,80.9063 87.5,79.5C 89.047,78.2318 90.047,76.5652 90.5,74.5C 91.4916,74.6716 92.1583,74.3382 92.5,73.5 Z"/></g>
<g><path style="opacity:1" fill="#4d504f" d="M 105.5,71.5 C 106.766,74.9734 108.766,78.14 111.5,81C 114.191,80.9461 116.024,82.1128 117,84.5C 118.472,80.2768 119.472,75.9434 120,71.5C 120.49,72.7932 120.657,74.1266 120.5,75.5C 120.227,79.8232 119.227,83.9898 117.5,88C 117.513,93.9682 117.513,99.8015 117.5,105.5C 117.66,103.801 117.494,102.134 117,100.5C 116.201,104.424 115.701,104.424 115.5,100.5C 115.931,97.6111 116.597,94.7778 117.5,92C 117.43,91.2352 117.097,90.7352 116.5,90.5C 115.637,89.0597 115.637,87.7264 116.5,86.5C 114.529,82.638 112.863,82.638 111.5,86.5C 112.187,88.1772 112.854,89.8439 113.5,91.5C 111.738,90.7377 110.738,89.4044 110.5,87.5C 109.459,81.7918 106.125,78.4585 100.5,77.5C 100.842,76.6618 101.508,76.3284 102.5,76.5C 104.028,75.1979 105.028,73.5313 105.5,71.5 Z"/></g>
<g><path style="opacity:1" fill="#635b41" d="M 98.5,79.5 C 97.6957,83.3807 97.3624,87.0473 97.5,90.5C 97.5,89.8333 97.1667,89.5 96.5,89.5C 96.5,88.8333 96.5,88.1667 96.5,87.5C 96.2938,84.5049 96.9605,81.8383 98.5,79.5 Z"/></g>
<g><path style="opacity:1" fill="#dcb934" d="M 80.5,69.5 C 80.5,70.1667 80.5,70.8333 80.5,71.5C 81.9099,74.7834 80.9099,77.1167 77.5,78.5C 70.8691,82.4755 64.5358,86.8088 58.5,91.5C 56.457,90.4206 55.1237,88.754 54.5,86.5C 56.2199,85.2493 56.5532,83.7493 55.5,82C 56.8333,81.3333 57.8333,80.3333 58.5,79C 61.0769,78.2969 63.7435,77.7969 66.5,77.5C 67.8149,75.6841 69.3149,74.0175 71,72.5C 72.9474,71.6105 75.7807,71.6105 79.5,72.5C 79.2627,71.209 79.596,70.209 80.5,69.5 Z"/></g>
<g><path style="opacity:1" fill="#737878" d="M 104.5,80.5 C 107.211,82.2752 109.211,84.6085 110.5,87.5C 110.738,89.4044 111.738,90.7377 113.5,91.5C 113.5,92.5 113.5,93.5 113.5,94.5C 110.313,92.6562 108.313,89.9895 107.5,86.5C 105.897,85.4036 104.397,84.0703 103,82.5C 102.472,81.184 102.972,80.5173 104.5,80.5 Z"/></g>
<g><path style="opacity:1" fill="#d6d9d0" d="M 37.5,78.5 C 37.6602,80.1992 37.4935,81.8659 37,83.5C 36.3333,82.8333 35.6667,82.1667 35,81.5C 31.2641,85.741 27.0974,89.4076 22.5,92.5C 21.9569,92.44 21.6236,92.1067 21.5,91.5C 23.6376,85.9014 26.8042,80.9014 31,76.5C 31.3333,76.8333 31.6667,77.1667 32,77.5C 32.6917,76.5632 32.525,75.8966 31.5,75.5C 32.4217,70.4973 33.9217,70.4973 36,75.5C 37.487,74.7471 37.6537,73.9138 36.5,73C 39.6572,72.7826 40.8239,74.2826 40,77.5C 38.841,76.434 38.0076,76.7673 37.5,78.5 Z"/></g>
<g><path style="opacity:1" fill="#873312" d="M 77.5,78.5 C 79.1958,78.6854 80.5291,79.5187 81.5,81C 77.3773,84.2847 73.3773,87.7847 69.5,91.5C 66.7617,91.8875 64.4283,92.8875 62.5,94.5C 60.368,94.4456 59.0347,93.4456 58.5,91.5C 64.5358,86.8088 70.8691,82.4755 77.5,78.5 Z"/></g>
<g><path style="opacity:1" fill="#948c52" d="M 39.5,54.5 C 39.185,58.3714 39.5184,62.0381 40.5,65.5C 40.8333,65.5 41.1667,65.5 41.5,65.5C 42.812,71.805 45.812,77.1384 50.5,81.5C 51.0798,83.7488 52.4131,85.4154 54.5,86.5C 55.1237,88.754 56.457,90.4206 58.5,91.5C 59.0347,93.4456 60.368,94.4456 62.5,94.5C 61.8333,95.1667 61.1667,95.8333 60.5,96.5C 59.391,96.4431 58.391,96.1098 57.5,95.5C 53.5078,90.8646 49.5078,86.1979 45.5,81.5C 44.1052,78.5995 42.9386,75.5995 42,72.5C 38.8407,71.1776 37.0073,68.8442 36.5,65.5C 38.3878,63.0122 39.0545,60.0122 38.5,56.5C 38.3284,55.5084 38.6618,54.8417 39.5,54.5 Z"/></g>
<g><path style="opacity:1" fill="#6c210d" d="M 80.5,71.5 C 83.8229,72.4925 87.1563,73.4925 90.5,74.5C 90.047,76.5652 89.047,78.2318 87.5,79.5C 86.5213,77.8546 85.188,76.5213 83.5,75.5C 80.56,78.1809 80.8933,80.1809 84.5,81.5C 82.6329,82.7598 81.2995,84.4265 80.5,86.5C 75.7226,89.0597 71.0559,91.893 66.5,95C 65.0715,95.5791 63.7382,95.4124 62.5,94.5C 64.4283,92.8875 66.7617,91.8875 69.5,91.5C 73.3773,87.7847 77.3773,84.2847 81.5,81C 80.5291,79.5187 79.1958,78.6854 77.5,78.5C 80.9099,77.1167 81.9099,74.7834 80.5,71.5 Z"/></g>
<g><path style="opacity:1" fill="#6b6959" d="M 97.5,70.5 C 98.2597,75.8648 96.9264,80.5315 93.5,84.5C 92.1667,85.1667 90.8333,85.8333 89.5,86.5C 89.5654,86.0618 89.3988,85.7284 89,85.5C 87.3333,86.7332 85.8333,88.0665 84.5,89.5C 80.0493,92.1106 75.7159,94.9439 71.5,98C 67.7973,98.5787 64.1306,98.412 60.5,97.5C 60.5,97.1667 60.5,96.8333 60.5,96.5C 61.1667,95.8333 61.8333,95.1667 62.5,94.5C 63.7382,95.4124 65.0715,95.5791 66.5,95C 71.0559,91.893 75.7226,89.0597 80.5,86.5C 84.3888,84.3034 88.2221,81.9701 92,79.5C 92.813,77.5643 93.313,75.5643 93.5,73.5C 94.2679,72.7375 94.7679,71.7375 95,70.5C 95.7697,71.5981 96.603,71.5981 97.5,70.5 Z"/></g>
<g><path style="opacity:1" fill="#7e8280" d="M 116.5,90.5 C 115.391,90.5569 114.391,90.8902 113.5,91.5C 112.854,89.8439 112.187,88.1772 111.5,86.5C 112.863,82.638 114.529,82.638 116.5,86.5C 115.637,87.7264 115.637,89.0597 116.5,90.5 Z"/></g>
<g><path style="opacity:1" fill="#2c2e2f" d="M 89.5,86.5 C 89.6038,89.0895 88.9371,91.4229 87.5,93.5C 87.685,94.5837 88.0183,95.5837 88.5,96.5C 87.1779,96.67 86.0113,96.3366 85,95.5C 84.5045,93.5273 84.3379,91.5273 84.5,89.5C 85.8333,88.0665 87.3333,86.7332 89,85.5C 89.3988,85.7284 89.5654,86.0618 89.5,86.5 Z"/></g>
<g><path style="opacity:1" fill="#b0b4a9" d="M 37.5,78.5 C 38.593,80.3492 39.9263,82.0158 41.5,83.5C 42.4124,84.7382 42.5791,86.0715 42,87.5C 36.9327,91.0961 31.266,93.7627 25,95.5C 24.0979,95.2568 23.2646,94.9234 22.5,94.5C 22.5,93.8333 22.5,93.1667 22.5,92.5C 27.0974,89.4076 31.2641,85.741 35,81.5C 35.6667,82.1667 36.3333,82.8333 37,83.5C 37.4935,81.8659 37.6602,80.1992 37.5,78.5 Z"/></g>
<g><path style="opacity:1" fill="#676a5d" d="M 45.5,81.5 C 49.5078,86.1979 53.5078,90.8646 57.5,95.5C 57.6741,97.861 58.0074,100.194 58.5,102.5C 58.5,103.167 58.1667,103.5 57.5,103.5C 57.6716,102.508 57.3382,101.842 56.5,101.5C 56.6621,99.4727 56.4955,97.4727 56,95.5C 54.927,96.2797 53.7604,96.113 52.5,95C 50,91.8333 47.5,88.6667 45,85.5C 44.5,86 44,86.5 43.5,87C 44.376,88.586 45.376,90.086 46.5,91.5C 45.7112,93.4879 44.5445,93.8213 43,92.5C 42.3828,93.4491 42.5494,94.2825 43.5,95C 37.6255,96.0188 31.9588,97.5188 26.5,99.5C 24.4131,98.4154 23.0798,96.7488 22.5,94.5C 23.2646,94.9234 24.0979,95.2568 25,95.5C 31.266,93.7627 36.9327,91.0961 42,87.5C 42.5791,86.0715 42.4124,84.7382 41.5,83.5C 43.4832,83.8432 44.8166,83.1765 45.5,81.5 Z"/></g>
<g><path style="opacity:1" fill="#9fa5a2" d="M 100.5,77.5 C 106.125,78.4585 109.459,81.7918 110.5,87.5C 109.211,84.6085 107.211,82.2752 104.5,80.5C 104.217,79.7109 103.717,79.0442 103,78.5C 102.167,80 101,81.1667 99.5,82C 101.901,82.805 101.734,83.6383 99,84.5C 98.5172,85.448 98.3505,86.448 98.5,87.5C 100.331,88.0522 101.997,88.0522 103.5,87.5C 105.35,88.2418 106.016,89.2418 105.5,90.5C 106.172,89.0508 106.839,87.7175 107.5,86.5C 108.313,89.9895 110.313,92.6562 113.5,94.5C 113.158,95.3382 112.492,95.6716 111.5,95.5C 110.542,95.0472 109.708,94.3805 109,93.5C 104.97,94.8972 100.804,95.8972 96.5,96.5C 97.9501,97.8498 98.6168,99.5165 98.5,101.5C 96.6779,99.3371 95.0112,99.8371 93.5,103C 94.4158,103.278 95.0825,103.778 95.5,104.5C 92.0105,105.313 89.3438,107.313 87.5,110.5C 86.7168,108.924 85.5501,107.591 84,106.5C 81.9193,108.557 82.086,110.223 84.5,111.5C 82.9106,112.621 81.2439,112.454 79.5,111C 81.9288,110.549 82.0955,109.715 80,108.5C 77.5886,109.565 75.4219,110.899 73.5,112.5C 72.8333,111.833 72.1667,111.167 71.5,110.5C 71.3893,109.883 71.056,109.383 70.5,109C 72.087,108.138 73.7536,107.471 75.5,107C 74.944,106.617 74.6107,106.117 74.5,105.5C 83.9539,103.271 91.6206,98.271 97.5,90.5C 97.3624,87.0473 97.6957,83.3807 98.5,79.5C 98.8333,78.5 99.5,77.8333 100.5,77.5 Z"/></g>
<g><path style="opacity:1" fill="#554e4b" d="M 104.5,80.5 C 102.972,80.5173 102.472,81.184 103,82.5C 104.397,84.0703 105.897,85.4036 107.5,86.5C 106.839,87.7175 106.172,89.0508 105.5,90.5C 106.016,89.2418 105.35,88.2418 103.5,87.5C 101.997,88.0522 100.331,88.0522 98.5,87.5C 98.3505,86.448 98.5172,85.448 99,84.5C 101.734,83.6383 101.901,82.805 99.5,82C 101,81.1667 102.167,80 103,78.5C 103.717,79.0442 104.217,79.7109 104.5,80.5 Z"/></g>
<g><path style="opacity:1" fill="#51534d" d="M 56.5,101.5 C 55.8333,101.5 55.5,101.833 55.5,102.5C 54.1266,102.343 52.7932,102.51 51.5,103C 52.4158,103.278 53.0825,103.778 53.5,104.5C 47.1384,104.645 40.805,104.811 34.5,105C 30.8539,104.51 28.1872,102.677 26.5,99.5C 31.9588,97.5188 37.6255,96.0188 43.5,95C 42.5494,94.2825 42.3828,93.4491 43,92.5C 44.5445,93.8213 45.7112,93.4879 46.5,91.5C 45.376,90.086 44.376,88.586 43.5,87C 44,86.5 44.5,86 45,85.5C 47.5,88.6667 50,91.8333 52.5,95C 53.7604,96.113 54.927,96.2797 56,95.5C 56.4955,97.4727 56.6621,99.4727 56.5,101.5 Z"/></g>
<g><path style="opacity:1" fill="#b6240e" d="M 57.5,95.5 C 58.391,96.1098 59.391,96.4431 60.5,96.5C 60.5,96.8333 60.5,97.1667 60.5,97.5C 60.5,98.8333 60.5,100.167 60.5,101.5C 59.8333,101.833 59.1667,102.167 58.5,102.5C 58.0074,100.194 57.6741,97.861 57.5,95.5 Z"/></g>
<g><path style="opacity:1" fill="#3a3a3a" d="M 116.5,90.5 C 115.084,94.8039 114.084,99.1373 113.5,103.5C 113.591,101.302 112.925,100.969 111.5,102.5C 111.5,102.833 111.5,103.167 111.5,103.5C 109.833,103.5 108.167,103.5 106.5,103.5C 108.075,101.059 110.408,99.8928 113.5,100C 112.944,99.6174 112.611,99.1174 112.5,98.5C 113.644,97.1507 113.644,96.8174 112.5,97.5C 111.788,98.7387 110.788,99.2387 109.5,99C 110.305,97.8873 110.972,96.7206 111.5,95.5C 112.492,95.6716 113.158,95.3382 113.5,94.5C 113.5,93.5 113.5,92.5 113.5,91.5C 114.391,90.8902 115.391,90.5569 116.5,90.5 Z M 113.5,103.5 C 112.833,103.5 112.167,103.5 111.5,103.5C 111.5,103.167 111.5,102.833 111.5,102.5C 112.925,100.969 113.591,101.302 113.5,103.5 Z"/></g>
<g><path style="opacity:1" fill="#999999" d="M 116.5,90.5 C 117.097,90.7352 117.43,91.2352 117.5,92C 116.597,94.7778 115.931,97.6111 115.5,100.5C 115.701,104.424 116.201,104.424 117,100.5C 117.494,102.134 117.66,103.801 117.5,105.5C 114.15,105.665 110.817,105.498 107.5,105C 106.944,104.617 106.611,104.117 106.5,103.5C 108.167,103.5 109.833,103.5 111.5,103.5C 112.167,103.5 112.833,103.5 113.5,103.5C 114.084,99.1373 115.084,94.8039 116.5,90.5 Z"/></g>
<g><path style="opacity:1" fill="#686b6a" d="M 21.5,77.5 C 17.5311,77.149 14.8645,78.8157 13.5,82.5C 18.1652,96.1502 26.4985,106.817 38.5,114.5C 38.1667,114.5 37.8333,114.5 37.5,114.5C 36.1667,115.167 36.1667,115.833 37.5,116.5C 38.8333,117.167 40.1667,117.833 41.5,118.5C 40.6879,119.993 39.3545,120.66 37.5,120.5C 36.2284,120.43 35.0617,120.097 34,119.5C 33.6667,117.167 33.3333,114.833 33,112.5C 20.9754,103.295 13.1421,91.2952 9.5,76.5C 10.8175,76.821 12.1508,77.1543 13.5,77.5C 17.1729,74.142 20.8396,73.9753 24.5,77C 23.552,77.4828 22.552,77.6495 21.5,77.5 Z"/></g>
<g><path style="opacity:1" fill="#781813" d="M 98.5,101.5 C 97.9181,102.931 97.0848,104.264 96,105.5C 95.6012,105.272 95.4346,104.938 95.5,104.5C 95.0825,103.778 94.4158,103.278 93.5,103C 95.0112,99.8371 96.6779,99.3371 98.5,101.5 Z"/></g>
<g><path style="opacity:1" fill="#5d0d07" d="M 84.5,89.5 C 84.3379,91.5273 84.5045,93.5273 85,95.5C 86.0113,96.3366 87.1779,96.67 88.5,96.5C 91.4311,94.4223 94.0978,92.089 96.5,89.5C 97.1667,89.5 97.5,89.8333 97.5,90.5C 91.6206,98.271 83.9539,103.271 74.5,105.5C 73.8333,105.5 73.1667,105.5 72.5,105.5C 69.3915,105.736 66.3915,105.403 63.5,104.5C 63.1667,104.5 62.8333,104.5 62.5,104.5C 62.7148,102.821 62.0481,101.821 60.5,101.5C 60.5,100.167 60.5,98.8333 60.5,97.5C 64.1306,98.412 67.7973,98.5787 71.5,98C 75.7159,94.9439 80.0493,92.1106 84.5,89.5 Z"/></g>
<g><path style="opacity:1" fill="#740302" d="M 55.5,102.5 C 55.8417,103.338 56.5084,103.672 57.5,103.5C 56.791,104.404 55.791,104.737 54.5,104.5C 54.1667,104.5 53.8333,104.5 53.5,104.5C 53.0825,103.778 52.4158,103.278 51.5,103C 52.7932,102.51 54.1266,102.343 55.5,102.5 Z"/></g>
<g><path style="opacity:1" fill="#97a09d" d="M 21.5,77.5 C 21.8039,78.1499 22.1373,78.8165 22.5,79.5C 17.2313,84.6186 17.2313,89.6186 22.5,94.5C 23.0798,96.7488 24.4131,98.4154 26.5,99.5C 28.1872,102.677 30.8539,104.51 34.5,105C 40.805,104.811 47.1384,104.645 53.5,104.5C 53.8333,104.5 54.1667,104.5 54.5,104.5C 53.0582,105.82 52.3915,107.486 52.5,109.5C 47.8002,109.682 44.1336,111.682 41.5,115.5C 40.5832,114.873 39.5832,114.539 38.5,114.5C 26.4985,106.817 18.1652,96.1502 13.5,82.5C 14.8645,78.8157 17.5311,77.149 21.5,77.5 Z"/></g>
<g><path style="opacity:1" fill="#5b5c5a" d="M 60.5,101.5 C 62.0481,101.821 62.7148,102.821 62.5,104.5C 61.2716,107.075 59.6049,109.408 57.5,111.5C 57.1667,110.833 56.8333,110.167 56.5,109.5C 52.4165,110.92 48.4165,112.587 44.5,114.5C 47.3306,115.874 49.664,115.207 51.5,112.5C 51.4116,113.922 51.4116,115.422 51.5,117C 50.451,117.492 49.451,117.326 48.5,116.5C 48.891,117.718 48.2244,118.552 46.5,119C 47.8989,119.595 49.2322,119.428 50.5,118.5C 56.8459,120.386 63.1792,121.719 69.5,122.5C 63.1738,122.874 57.0071,122.207 51,120.5C 50.6667,121.167 50.3333,121.833 50,122.5C 47.8687,121.385 46.0354,120.052 44.5,118.5C 44.9175,117.778 45.5842,117.278 46.5,117C 44.1667,116.667 41.8333,116.333 39.5,116C 38.944,115.617 38.6107,115.117 38.5,114.5C 39.5832,114.539 40.5832,114.873 41.5,115.5C 44.1336,111.682 47.8002,109.682 52.5,109.5C 52.3915,107.486 53.0582,105.82 54.5,104.5C 55.791,104.737 56.791,104.404 57.5,103.5C 58.1667,103.5 58.5,103.167 58.5,102.5C 59.1667,102.167 59.8333,101.833 60.5,101.5 Z"/></g>
<g><path style="opacity:1" fill="#483938" d="M 63.5,104.5 C 66.3915,105.403 69.3915,105.736 72.5,105.5C 71.2067,106.158 69.7067,106.492 68,106.5C 66.0145,106.431 64.5145,105.765 63.5,104.5 Z"/></g>
<g><path style="opacity:1" fill="#bbc2c1" d="M 111.5,95.5 C 110.972,96.7206 110.305,97.8873 109.5,99C 110.788,99.2387 111.788,98.7387 112.5,97.5C 112.5,97.8333 112.5,98.1667 112.5,98.5C 112.611,99.1174 112.944,99.6174 113.5,100C 110.408,99.8928 108.075,101.059 106.5,103.5C 105.5,103.833 104.833,104.5 104.5,105.5C 98.8072,110.009 92.8072,114.009 86.5,117.5C 81.6396,119.139 76.6396,120.139 71.5,120.5C 68.4816,120.665 65.4816,120.498 62.5,120C 63.6184,118.926 64.6184,117.76 65.5,116.5C 67.6054,116.247 69.6054,115.913 71.5,115.5C 72.2389,115.631 72.9056,115.464 73.5,115C 72.2264,114.023 72.2264,113.189 73.5,112.5C 75.4219,110.899 77.5886,109.565 80,108.5C 82.0955,109.715 81.9288,110.549 79.5,111C 81.2439,112.454 82.9106,112.621 84.5,111.5C 85.791,111.737 86.791,111.404 87.5,110.5C 89.3438,107.313 92.0105,105.313 95.5,104.5C 95.4346,104.938 95.6012,105.272 96,105.5C 97.0848,104.264 97.9181,102.931 98.5,101.5C 98.6168,99.5165 97.9501,97.8498 96.5,96.5C 100.804,95.8972 104.97,94.8972 109,93.5C 109.708,94.3805 110.542,95.0472 111.5,95.5 Z"/></g>
<g><path style="opacity:1" fill="#212121" d="M 106.5,103.5 C 106.611,104.117 106.944,104.617 107.5,105C 110.817,105.498 114.15,105.665 117.5,105.5C 113.601,106.791 109.601,106.791 105.5,105.5C 105.167,105.5 104.833,105.5 104.5,105.5C 104.833,104.5 105.5,103.833 106.5,103.5 Z"/></g>
<g><path style="opacity:1" fill="#7a1a15" d="M 87.5,110.5 C 86.791,111.404 85.791,111.737 84.5,111.5C 82.086,110.223 81.9193,108.557 84,106.5C 85.5501,107.591 86.7168,108.924 87.5,110.5 Z"/></g>
<g><path style="opacity:1" fill="#979e9c" d="M 62.5,104.5 C 62.8333,104.5 63.1667,104.5 63.5,104.5C 64.5145,105.765 66.0145,106.431 68,106.5C 69.7067,106.492 71.2067,106.158 72.5,105.5C 73.1667,105.5 73.8333,105.5 74.5,105.5C 74.6107,106.117 74.944,106.617 75.5,107C 73.7536,107.471 72.087,108.138 70.5,109C 71.056,109.383 71.3893,109.883 71.5,110.5C 68.1908,112.719 68.1908,114.386 71.5,115.5C 69.6054,115.913 67.6054,116.247 65.5,116.5C 64.6184,117.76 63.6184,118.926 62.5,120C 65.4816,120.498 68.4816,120.665 71.5,120.5C 71.8333,121.167 72.1667,121.833 72.5,122.5C 71.5,122.5 70.5,122.5 69.5,122.5C 63.1792,121.719 56.8459,120.386 50.5,118.5C 49.2322,119.428 47.8989,119.595 46.5,119C 48.2244,118.552 48.891,117.718 48.5,116.5C 49.451,117.326 50.451,117.492 51.5,117C 51.4116,115.422 51.4116,113.922 51.5,112.5C 49.664,115.207 47.3306,115.874 44.5,114.5C 48.4165,112.587 52.4165,110.92 56.5,109.5C 56.8333,110.167 57.1667,110.833 57.5,111.5C 59.6049,109.408 61.2716,107.075 62.5,104.5 Z"/></g>
<g><path style="opacity:1" fill="#761411" d="M 71.5,110.5 C 72.1667,111.167 72.8333,111.833 73.5,112.5C 72.2264,113.189 72.2264,114.023 73.5,115C 72.9056,115.464 72.2389,115.631 71.5,115.5C 68.1908,114.386 68.1908,112.719 71.5,110.5 Z"/></g>
<g><path style="opacity:1" fill="#8c8c8c" d="M 37.5,114.5 C 37.8333,114.5 38.1667,114.5 38.5,114.5C 38.6107,115.117 38.944,115.617 39.5,116C 41.8333,116.333 44.1667,116.667 46.5,117C 45.5842,117.278 44.9175,117.778 44.5,118.5C 43.5,118.5 42.5,118.5 41.5,118.5C 40.1667,117.833 38.8333,117.167 37.5,116.5C 37.5,115.833 37.5,115.167 37.5,114.5 Z"/></g>
<g><path style="opacity:1" fill="#848887" d="M 104.5,105.5 C 104.833,105.5 105.167,105.5 105.5,105.5C 100.599,111.291 94.5986,115.624 87.5,118.5C 87.5,117.833 87.1667,117.5 86.5,117.5C 92.8072,114.009 98.8072,110.009 104.5,105.5 Z"/></g>
<g><path style="opacity:1" fill="#4e595b" d="M 86.5,117.5 C 87.1667,117.5 87.5,117.833 87.5,118.5C 86.1879,120.479 84.5212,122.145 82.5,123.5C 81.5224,123.023 80.6891,122.357 80,121.5C 77.6308,124.658 75.1308,124.992 72.5,122.5C 72.1667,121.833 71.8333,121.167 71.5,120.5C 76.6396,120.139 81.6396,119.139 86.5,117.5 Z"/></g>
</svg>
